<svg width="48" height="49" viewBox="0 0 48 49" fill="none" xmlns="http://www.w3.org/2000/svg">
<g clip-path="url(#clip0_1422_673)">
<path d="M11.7 46.5659C10.1333 46.5659 8.79167 46.0076 7.675 44.8909C6.55833 43.7743 6 42.4326 6 40.8659C6 39.2659 6.55833 37.9159 7.675 36.8159C8.79167 35.7159 10.1333 35.1659 11.7 35.1659C12.1667 35.1659 12.575 35.2076 12.925 35.2909C13.275 35.3742 13.6333 35.4992 14 35.6659L18.25 30.3659C17.6167 29.5993 17.1333 28.7243 16.8 27.7409C16.4667 26.7576 16.3833 25.7326 16.55 24.6659L10.5 22.6159C10 23.4493 9.34167 24.0993 8.525 24.5659C7.70833 25.0326 6.76667 25.2659 5.7 25.2659C4.13333 25.2659 2.79167 24.7076 1.675 23.5909C0.558333 22.4743 0 21.1326 0 19.5659C0 17.9659 0.558333 16.6159 1.675 15.5159C2.79167 14.4159 4.13333 13.8659 5.7 13.8659C7.3 13.8659 8.65 14.4159 9.75 15.5159C10.85 16.6159 11.4 17.9659 11.4 19.5659V19.7659L17.5 21.8659C18.1 20.7993 18.825 19.9826 19.675 19.4159C20.525 18.8493 21.4667 18.4493 22.5 18.2159V11.7659C21.2 11.3993 20.175 10.6826 19.425 9.61592C18.675 8.54925 18.3 7.43258 18.3 6.26592C18.3 4.66592 18.8583 3.31592 19.975 2.21592C21.0917 1.11592 22.4333 0.565918 24 0.565918C25.6 0.565918 26.95 1.11592 28.05 2.21592C29.15 3.31592 29.7 4.66592 29.7 6.26592C29.7 7.43258 29.3167 8.54925 28.55 9.61592C27.7833 10.6826 26.7667 11.3993 25.5 11.7659V18.2159C26.5333 18.4493 27.4833 18.8493 28.35 19.4159C29.2167 19.9826 29.95 20.7993 30.55 21.8659L36.6 19.7659V19.5659C36.6 17.9659 37.1583 16.6159 38.275 15.5159C39.3917 14.4159 40.7333 13.8659 42.3 13.8659C43.9 13.8659 45.25 14.4159 46.35 15.5159C47.45 16.6159 48 17.9659 48 19.5659C48 21.1326 47.45 22.4743 46.35 23.5909C45.25 24.7076 43.9 25.2659 42.3 25.2659C41.2333 25.2659 40.2833 25.0326 39.45 24.5659C38.6167 24.0993 37.9667 23.4493 37.5 22.6159L31.45 24.6659C31.6167 25.7326 31.5417 26.7576 31.225 27.7409C30.9083 28.7243 30.4167 29.5993 29.75 30.3659L34 35.6659C34.3667 35.4992 34.725 35.3742 35.075 35.2909C35.425 35.2076 35.8333 35.1659 36.3 35.1659C37.9 35.1659 39.25 35.7159 40.35 36.8159C41.45 37.9159 42 39.2659 42 40.8659C42 42.4326 41.45 43.7743 40.35 44.8909C39.25 46.0076 37.9 46.5659 36.3 46.5659C34.7333 46.5659 33.3917 46.0076 32.275 44.8909C31.1583 43.7743 30.6 42.4326 30.6 40.8659C30.6 40.1993 30.6917 39.5993 30.875 39.0659C31.0583 38.5326 31.3167 38.0159 31.65 37.5159L27.4 32.2159C26.3333 32.7826 25.1917 33.0659 23.975 33.0659C22.7583 33.0659 21.6167 32.7826 20.55 32.2159L16.35 37.5659C16.6833 38.0659 16.9417 38.5743 17.125 39.0909C17.3083 39.6076 17.4 40.1993 17.4 40.8659C17.4 42.4326 16.85 43.7743 15.75 44.8909C14.65 46.0076 13.3 46.5659 11.7 46.5659ZM5.7 22.2659C6.46667 22.2659 7.10833 22.0076 7.625 21.4909C8.14167 20.9743 8.4 20.3326 8.4 19.5659C8.4 18.7993 8.14167 18.1576 7.625 17.6409C7.10833 17.1243 6.46667 16.8659 5.7 16.8659C4.93333 16.8659 4.29167 17.1243 3.775 17.6409C3.25833 18.1576 3 18.7993 3 19.5659C3 20.3326 3.25833 20.9743 3.775 21.4909C4.29167 22.0076 4.93333 22.2659 5.7 22.2659V22.2659ZM11.7 43.5659C12.4667 43.5659 13.1083 43.3076 13.625 42.7909C14.1417 42.2742 14.4 41.6326 14.4 40.8659C14.4 40.0993 14.1417 39.4576 13.625 38.9409C13.1083 38.4243 12.4667 38.1659 11.7 38.1659C10.9333 38.1659 10.2917 38.4243 9.775 38.9409C9.25833 39.4576 9 40.0993 9 40.8659C9 41.6326 9.25833 42.2742 9.775 42.7909C10.2917 43.3076 10.9333 43.5659 11.7 43.5659ZM24 8.96592C24.7667 8.96592 25.4083 8.70758 25.925 8.19092C26.4417 7.67425 26.7 7.03258 26.7 6.26592C26.7 5.49925 26.4417 4.85758 25.925 4.34092C25.4083 3.82425 24.7667 3.56592 24 3.56592C23.2333 3.56592 22.5917 3.82425 22.075 4.34092C21.5583 4.85758 21.3 5.49925 21.3 6.26592C21.3 7.03258 21.5583 7.67425 22.075 8.19092C22.5917 8.70758 23.2333 8.96592 24 8.96592ZM24.05 30.0659C25.2833 30.0659 26.3333 29.6243 27.2 28.7409C28.0667 27.8576 28.5 26.7826 28.5 25.5159C28.5 24.2826 28.0667 23.2326 27.2 22.3659C26.3333 21.4993 25.2667 21.0659 24 21.0659C22.7667 21.0659 21.7083 21.4993 20.825 22.3659C19.9417 23.2326 19.5 24.2993 19.5 25.5659C19.5 26.7993 19.9417 27.8576 20.825 28.7409C21.7083 29.6243 22.7833 30.0659 24.05 30.0659ZM36.3 43.5659C37.0667 43.5659 37.7083 43.3076 38.225 42.7909C38.7417 42.2742 39 41.6326 39 40.8659C39 40.0993 38.7417 39.4576 38.225 38.9409C37.7083 38.4243 37.0667 38.1659 36.3 38.1659C35.5333 38.1659 34.8917 38.4243 34.375 38.9409C33.8583 39.4576 33.6 40.0993 33.6 40.8659C33.6 41.6326 33.8583 42.2742 34.375 42.7909C34.8917 43.3076 35.5333 43.5659 36.3 43.5659ZM42.3 22.2659C43.0667 22.2659 43.7083 22.0076 44.225 21.4909C44.7417 20.9743 45 20.3326 45 19.5659C45 18.7993 44.7417 18.1576 44.225 17.6409C43.7083 17.1243 43.0667 16.8659 42.3 16.8659C41.5333 16.8659 40.8917 17.1243 40.375 17.6409C39.8583 18.1576 39.6 18.7993 39.6 19.5659C39.6 20.3326 39.8583 20.9743 40.375 21.4909C40.8917 22.0076 41.5333 22.2659 42.3 22.2659Z" fill="#6B7CFF"/>
</g>
<defs>
<clipPath id="clip0_1422_673">
<rect width="48" height="48" fill="white" transform="translate(0 0.565918)"/>
</clipPath>
</defs>
</svg>
