<svg width="48" height="49" viewBox="0 0 48 49" fill="none" xmlns="http://www.w3.org/2000/svg">
<path d="M16 24.0659V21.0659H32V24.0659H16ZM16 16.0659V13.0659H32V16.0659H16ZM11 29.0659H27C27.8667 29.0659 28.6833 29.2659 29.45 29.6659C30.2167 30.0659 30.8667 30.5993 31.4 31.2659L37 38.5659V7.56592H11V29.0659ZM11 41.5659H35.5L29.05 33.1159C28.7833 32.7826 28.475 32.5243 28.125 32.3409C27.775 32.1576 27.4 32.0659 27 32.0659H11V41.5659ZM37 44.5659H11C10.2 44.5659 9.5 44.2659 8.9 43.6659C8.3 43.0659 8 42.3659 8 41.5659V7.56592C8 6.76592 8.3 6.06592 8.9 5.46592C9.5 4.86592 10.2 4.56592 11 4.56592H37C37.8 4.56592 38.5 4.86592 39.1 5.46592C39.7 6.06592 40 6.76592 40 7.56592V41.5659C40 42.3659 39.7 43.0659 39.1 43.6659C38.5 44.2659 37.8 44.5659 37 44.5659ZM11 41.5659V7.56592V41.5659ZM11 32.0659V29.0659V32.0659Z" fill="#6B7CFF"/>
</svg>
