<svg width="55" height="48" viewBox="0 0 55 48" fill="none" xmlns="http://www.w3.org/2000/svg">
<path d="M35.394 33.65L37.9252 31.4L28.9815 23.4V13.35H25.6065V24.6L35.394 33.65ZM27.1252 44C24.0502 44 21.144 43.475 18.4065 42.425C15.669 41.375 13.2784 39.9417 11.2346 38.125C9.19087 36.3083 7.57837 34.1833 6.39712 31.75C5.21587 29.3167 4.62524 26.7333 4.62524 24C4.62524 21.2667 5.21587 18.6833 6.39712 16.25C7.57837 13.8167 9.19087 11.6917 11.2346 9.875C13.2784 8.05833 15.669 6.625 18.4065 5.575C21.144 4.525 24.0502 4 27.1252 4C30.2002 4 33.1065 4.525 35.844 5.575C38.5815 6.625 40.9721 8.05833 43.0159 9.875C45.0596 11.6917 46.6721 13.8167 47.8534 16.25C49.0346 18.6833 49.6252 21.2667 49.6252 24C49.6252 26.7333 49.0346 29.3167 47.8534 31.75C46.6721 34.1833 45.0596 36.3083 43.0159 38.125C40.9721 39.9417 38.5815 41.375 35.844 42.425C33.1065 43.475 30.2002 44 27.1252 44ZM27.1252 41C32.3752 41 36.8752 39.3333 40.6252 36C44.3752 32.6667 46.2502 28.6667 46.2502 24C46.2502 19.3333 44.3752 15.3333 40.6252 12C36.8752 8.66667 32.3752 7 27.1252 7C21.8752 7 17.3752 8.66667 13.6252 12C9.87524 15.3333 8.00024 19.3333 8.00024 24C8.00024 28.6667 9.87524 32.6667 13.6252 36C17.3752 39.3333 21.8752 41 27.1252 41Z" fill="#6B7CFF"/>
</svg>
