<svg width="54" height="48" viewBox="0 0 54 48" fill="none" xmlns="http://www.w3.org/2000/svg">
<path d="M26.9998 31.5C29.6623 31.5 31.9216 30.675 33.7779 29.025C35.6341 27.375 36.5623 25.3667 36.5623 23C36.5623 20.6333 35.6341 18.625 33.7779 16.975C31.9216 15.325 29.6623 14.5 26.9998 14.5C24.3373 14.5 22.0779 15.325 20.2216 16.975C18.3654 18.625 17.4373 20.6333 17.4373 23C17.4373 25.3667 18.3654 27.375 20.2216 29.025C22.0779 30.675 24.3373 31.5 26.9998 31.5ZM26.9998 28.6C25.2373 28.6 23.7466 28.0583 22.5279 26.975C21.3091 25.8917 20.6998 24.5667 20.6998 23C20.6998 21.4333 21.3091 20.1083 22.5279 19.025C23.7466 17.9417 25.2373 17.4 26.9998 17.4C28.7623 17.4 30.2529 17.9417 31.4716 19.025C32.6904 20.1083 33.2998 21.4333 33.2998 23C33.2998 24.5667 32.6904 25.8917 31.4716 26.975C30.2529 28.0583 28.7623 28.6 26.9998 28.6ZM26.9998 38C21.5248 38 16.5748 36.6167 12.1498 33.85C7.72476 31.0833 4.42476 27.4667 2.24976 23C4.42476 18.5333 7.72476 14.9167 12.1498 12.15C16.5748 9.38333 21.5248 8 26.9998 8C32.4748 8 37.4248 9.38333 41.8498 12.15C46.2748 14.9167 49.5748 18.5333 51.7498 23C49.5748 27.4667 46.2748 31.0833 41.8498 33.85C37.4248 36.6167 32.4748 38 26.9998 38ZM26.9998 35C31.5373 35 35.7091 33.9083 39.5154 31.725C43.3216 29.5417 46.2185 26.6333 48.206 23C46.2185 19.3667 43.3216 16.4583 39.5154 14.275C35.7091 12.0917 31.5373 11 26.9998 11C22.4623 11 18.2904 12.0917 14.4841 14.275C10.6779 16.4583 7.76226 19.3667 5.73726 23C7.76226 26.6333 10.6779 29.5417 14.4841 31.725C18.2904 33.9083 22.4623 35 26.9998 35Z" fill="#6B7CFF"/>
</svg>
